<?xml version="1.0" encoding="UTF-8" standalone="no"?>
<svg xmlns="http://www.w3.org/2000/svg" xmlns:xlink="http://www.w3.org/1999/xlink" xml:space="preserve" width="346.66666" height="346.66666">
  <defs>
    <path id="a" d="M0 260h260V0H0Z"/>
    <path id="b" d="M104.71 101.94c0-40.201 32.589-72.79 72.79-72.79 40.201 0 72.79 32.589 72.79 72.79 0 40.201-32.589 72.79-72.79 72.79-40.201 0-72.79-32.589-72.79-72.79"/>
    <path id="c" d="M126.03 153.41c-28.427-28.426-28.427-74.514 0-102.941 28.426-28.425 74.514-28.425 102.941 0 28.425 28.427 28.425 74.515 0 102.941-14.213 14.214-32.842 21.32-51.471 21.32-18.628 0-37.257-7.106-51.47-21.32"/>
  </defs>
  <defs>
    <clipPath id="d" clipPathUnits="userSpaceOnUse">
      <use xlink:href="#a"/>
    </clipPath>
    <clipPath id="e" clipPathUnits="userSpaceOnUse">
      <use xlink:href="#b"/>
    </clipPath>
    <clipPath id="f" clipPathUnits="userSpaceOnUse">
      <use xlink:href="#c"/>
    </clipPath>
    <clipPath id="g" clipPathUnits="userSpaceOnUse">
      <use xlink:href="#b"/>
    </clipPath>
    <clipPath id="h" clipPathUnits="userSpaceOnUse">
      <use xlink:href="#c"/>
    </clipPath>
    <clipPath id="i" clipPathUnits="userSpaceOnUse">
      <use xlink:href="#b"/>
    </clipPath>
    <clipPath id="j" clipPathUnits="userSpaceOnUse">
      <use xlink:href="#c"/>
    </clipPath>
    <clipPath id="k" clipPathUnits="userSpaceOnUse">
      <use xlink:href="#a"/>
    </clipPath>
    <clipPath id="l" clipPathUnits="userSpaceOnUse">
      <path d="M-34.02 39.0605h68.0395v-78.1201H-34.02Z"/>
    </clipPath>
  </defs>
  <g transform="matrix(1.33333 0 0 -1.33333 0 346.66667)">
    <g clip-path="url(#d)">
      <path fill="red" d="M108.6184 215.9148c-1.117 4.149-4.388 7.42-8.537 8.537-7.579 2.074-37.897 2.074-37.897 2.074s-30.318 0-37.898-1.994c-4.069-1.117-7.42-4.468-8.537-8.617-1.994-7.579-1.994-23.297-1.994-23.297s0-15.797 1.994-23.297c1.117-4.149 4.389-7.42 8.537-8.537 7.66-2.074 37.898-2.074 37.898-2.074s30.318 0 37.897 1.994c4.149 1.117 7.42 4.389 8.537 8.537 1.995 7.58 1.995 23.297 1.995 23.297s.079 15.798-1.995 23.377"/>
      <path fill="#fff" d="m77.742 192.6179-25.212 14.521v-29.042Z"/>
      <path fill="#900" d="M177.5 126.3664c13.49 0 24.426-10.936 24.426-24.426 0-13.49-10.936-24.426-24.426-24.426-13.49 0-24.426 10.936-24.426 24.426 0 13.49 10.936 24.426 24.426 24.426"/>
    </g>
    <g fill="#069" clip-path="url(#e)">
      <path d="M174.8131 57.9729v-28.823h5.374v28.823"/>
      <path d="m166.9967 56.7516 10.503 18.32 10.504-18.32"/>
    </g>
    <g fill="#069" clip-path="url(#f)">
      <path d="m144.5106 72.7505-20.381-20.381 3.8-3.8 20.381 20.381"/>
      <path d="m138.1199 77.414 20.381 5.527-5.527-20.381"/>
    </g>
    <g fill="#069" clip-path="url(#g)">
      <path d="M133.5328 104.627h-28.823v-5.374h28.823"/>
      <path d="m132.3115 112.4434 18.32-10.503-18.32-10.504"/>
    </g>
    <g fill="#069" clip-path="url(#h)">
      <path d="m148.3104 134.9296-20.381 20.381-3.8-3.8 20.381-20.381"/>
      <path d="m152.9738 141.3202 5.527-20.381-20.381 5.527m72.3696-53.7157 20.381-20.381-3.8-3.8-20.381 20.381"/>
      <path d="m216.8801 77.414-20.381 5.527 5.527-20.381"/>
    </g>
    <g fill="#069" clip-path="url(#i)">
      <path d="M221.4672 104.627h28.823v-5.374h-28.823"/>
      <path d="m222.6885 112.4434-18.32-10.503 18.32-10.504"/>
    </g>
    <g fill="#069" clip-path="url(#j)">
      <path d="m206.6896 134.9296 20.381 20.381 3.8-3.8-20.381-20.381"/>
      <path d="m202.0262 141.3202-5.527-20.381 20.381 5.527"/>
    </g>
    <g clip-path="url(#k)">
      <path fill="none" stroke="#069" stroke-width="21" d="M133.2838 146.1563c-24.42-24.42-24.42-64.012 0-88.432s64.012-24.42 88.432 0 24.42 64.012 0 88.432c-17.272 17.272-43.352 8.463-48.534 46.462"/>
      <path fill="#069" d="M171.882 227.7352s-8.793-32.975-19.541-45.189c-10.748-12.213 28.334 15.145 41.525 1.222 13.19-13.923-21.984 43.967-21.984 43.967"/>
      <g clip-path="url(#l)" transform="matrix(-.60364 0 0 .64418 73.065987 118.00465)">
        <path fill="#231f20" d="M-7.0396-12.0415h23.013v51.102h18.046v-68.848h-41.059v-9.272l-26.98 18.084 27.001 17.779Z"/>
      </g>
    </g>
  </g>
</svg>